<mxfile host="app.diagrams.net" modified="2024-04-14T04:29:20.702Z" agent="Mozilla/5.0 (Windows NT 10.0; Win64; x64) AppleWebKit/537.36 (KHTML, like Gecko) Chrome/123.0.0.0 Safari/537.36" etag="WVG5P5TwjLhnl4wIj7k9" version="24.2.3" type="github">
  <diagram name="ページ1" id="0j9BvPOVyv1glCGRfYG_">
    <mxGraphModel dx="794" dy="446" grid="1" gridSize="10" guides="1" tooltips="1" connect="1" arrows="1" fold="1" page="1" pageScale="1" pageWidth="827" pageHeight="1169" math="0" shadow="0">
      <root>
        <mxCell id="0" />
        <mxCell id="1" parent="0" />
        <mxCell id="fvebulx2OxIcinfAuc56-7" style="edgeStyle=orthogonalEdgeStyle;rounded=0;orthogonalLoop=1;jettySize=auto;html=1;exitX=1;exitY=0.75;exitDx=0;exitDy=0;entryX=0.5;entryY=0;entryDx=0;entryDy=0;" edge="1" parent="1" source="M7j4h07cG0Kve68zO_rH-1" target="fvebulx2OxIcinfAuc56-4">
          <mxGeometry relative="1" as="geometry" />
        </mxCell>
        <mxCell id="M7j4h07cG0Kve68zO_rH-1" value="LifeCycle" style="verticalLabelPosition=bottom;verticalAlign=top;html=1;shape=process;whiteSpace=wrap;rounded=1;size=0.14;arcSize=6;" parent="1" vertex="1">
          <mxGeometry x="90" y="20" width="100" height="100" as="geometry" />
        </mxCell>
        <mxCell id="M7j4h07cG0Kve68zO_rH-2" value="Fill" style="verticalLabelPosition=bottom;verticalAlign=top;html=1;shape=process;whiteSpace=wrap;rounded=1;size=0.14;arcSize=6;" parent="1" vertex="1">
          <mxGeometry x="90" y="280" width="100" height="60" as="geometry" />
        </mxCell>
        <mxCell id="M7j4h07cG0Kve68zO_rH-3" value="sClearSale" style="text;html=1;align=center;verticalAlign=middle;whiteSpace=wrap;rounded=0;" parent="1" vertex="1">
          <mxGeometry x="130" y="200" width="60" height="30" as="geometry" />
        </mxCell>
        <mxCell id="fvebulx2OxIcinfAuc56-17" style="edgeStyle=orthogonalEdgeStyle;rounded=0;orthogonalLoop=1;jettySize=auto;html=1;" edge="1" parent="1" source="M7j4h07cG0Kve68zO_rH-4">
          <mxGeometry relative="1" as="geometry">
            <mxPoint x="360" y="150" as="targetPoint" />
          </mxGeometry>
        </mxCell>
        <mxCell id="M7j4h07cG0Kve68zO_rH-4" value="hold&lt;div&gt;IDLE&lt;/div&gt;" style="rounded=1;whiteSpace=wrap;html=1;" parent="1" vertex="1">
          <mxGeometry x="400" y="165" width="40" height="60" as="geometry" />
        </mxCell>
        <mxCell id="fvebulx2OxIcinfAuc56-13" style="edgeStyle=orthogonalEdgeStyle;rounded=0;orthogonalLoop=1;jettySize=auto;html=1;exitX=0.5;exitY=1;exitDx=0;exitDy=0;entryX=0.25;entryY=1;entryDx=0;entryDy=0;" edge="1" parent="1" source="M7j4h07cG0Kve68zO_rH-5" target="M7j4h07cG0Kve68zO_rH-7">
          <mxGeometry relative="1" as="geometry" />
        </mxCell>
        <mxCell id="M7j4h07cG0Kve68zO_rH-5" value="map" style="verticalLabelPosition=bottom;verticalAlign=top;html=1;shape=offPageConnector;rounded=0;size=0.3333333333333333;direction=north;" parent="1" vertex="1">
          <mxGeometry x="410" y="30" width="60" height="30" as="geometry" />
        </mxCell>
        <mxCell id="fvebulx2OxIcinfAuc56-14" style="edgeStyle=orthogonalEdgeStyle;rounded=0;orthogonalLoop=1;jettySize=auto;html=1;exitX=0.5;exitY=0;exitDx=0;exitDy=0;entryX=1;entryY=0.5;entryDx=0;entryDy=0;" edge="1" parent="1" source="M7j4h07cG0Kve68zO_rH-7" target="M7j4h07cG0Kve68zO_rH-4">
          <mxGeometry relative="1" as="geometry" />
        </mxCell>
        <mxCell id="M7j4h07cG0Kve68zO_rH-7" value="merge" style="verticalLabelPosition=middle;verticalAlign=middle;html=1;shape=trapezoid;perimeter=trapezoidPerimeter;whiteSpace=wrap;size=0.23;arcSize=10;flipV=1;labelPosition=center;align=center;direction=south;" parent="1" vertex="1">
          <mxGeometry x="520" y="20" width="60" height="100" as="geometry" />
        </mxCell>
        <mxCell id="fvebulx2OxIcinfAuc56-12" style="edgeStyle=orthogonalEdgeStyle;rounded=0;orthogonalLoop=1;jettySize=auto;html=1;exitX=0.5;exitY=1;exitDx=0;exitDy=0;entryX=0.75;entryY=1;entryDx=0;entryDy=0;" edge="1" parent="1" source="M7j4h07cG0Kve68zO_rH-9" target="M7j4h07cG0Kve68zO_rH-7">
          <mxGeometry relative="1" as="geometry" />
        </mxCell>
        <mxCell id="M7j4h07cG0Kve68zO_rH-9" value="map" style="verticalLabelPosition=bottom;verticalAlign=top;html=1;shape=offPageConnector;rounded=0;size=0.3333333333333333;direction=north;" parent="1" vertex="1">
          <mxGeometry x="410" y="80" width="60" height="30" as="geometry" />
        </mxCell>
        <mxCell id="M7j4h07cG0Kve68zO_rH-10" value="sStart" style="text;html=1;align=center;verticalAlign=middle;whiteSpace=wrap;rounded=0;" parent="1" vertex="1">
          <mxGeometry x="190" y="20" width="60" height="30" as="geometry" />
        </mxCell>
        <mxCell id="M7j4h07cG0Kve68zO_rH-11" value="sEnd" style="text;html=1;align=center;verticalAlign=middle;whiteSpace=wrap;rounded=0;" parent="1" vertex="1">
          <mxGeometry x="190" y="70" width="60" height="30" as="geometry" />
        </mxCell>
        <mxCell id="M7j4h07cG0Kve68zO_rH-13" value="hold&lt;div&gt;Optional.empty()&lt;/div&gt;" style="rounded=1;whiteSpace=wrap;html=1;" parent="1" vertex="1">
          <mxGeometry x="620" y="220" width="100" height="60" as="geometry" />
        </mxCell>
        <mxCell id="M7j4h07cG0Kve68zO_rH-14" value="hold&lt;div&gt;Optional.empty()&lt;/div&gt;" style="rounded=1;whiteSpace=wrap;html=1;" parent="1" vertex="1">
          <mxGeometry x="530" y="350" width="100" height="60" as="geometry" />
        </mxCell>
        <mxCell id="M7j4h07cG0Kve68zO_rH-15" value="sBeep" style="text;html=1;align=center;verticalAlign=middle;whiteSpace=wrap;rounded=0;" parent="1" vertex="1">
          <mxGeometry x="750" y="60" width="40" height="30" as="geometry" />
        </mxCell>
        <mxCell id="M7j4h07cG0Kve68zO_rH-16" value="sSaleComplete" style="text;html=1;align=center;verticalAlign=middle;whiteSpace=wrap;rounded=0;" parent="1" vertex="1">
          <mxGeometry x="750" y="140" width="83" height="30" as="geometry" />
        </mxCell>
        <mxCell id="M7j4h07cG0Kve68zO_rH-17" value="sStart" style="text;html=1;align=center;verticalAlign=middle;whiteSpace=wrap;rounded=0;" parent="1" vertex="1">
          <mxGeometry x="460" y="20" width="60" height="30" as="geometry" />
        </mxCell>
        <mxCell id="M7j4h07cG0Kve68zO_rH-18" value="sEnd" style="text;html=1;align=center;verticalAlign=middle;whiteSpace=wrap;rounded=0;" parent="1" vertex="1">
          <mxGeometry x="460" y="70" width="60" height="30" as="geometry" />
        </mxCell>
        <mxCell id="M7j4h07cG0Kve68zO_rH-19" value="filterOptional" style="strokeWidth=2;html=1;shape=mxgraph.flowchart.decision;whiteSpace=wrap;" parent="1" vertex="1">
          <mxGeometry x="690" y="320" width="100" height="70" as="geometry" />
        </mxCell>
        <mxCell id="fvebulx2OxIcinfAuc56-1" value="" style="endArrow=classic;html=1;rounded=0;entryX=0.5;entryY=0;entryDx=0;entryDy=0;exitX=1;exitY=0.25;exitDx=0;exitDy=0;" edge="1" parent="1" source="M7j4h07cG0Kve68zO_rH-1" target="fvebulx2OxIcinfAuc56-2">
          <mxGeometry width="50" height="50" relative="1" as="geometry">
            <mxPoint x="230" y="55" as="sourcePoint" />
            <mxPoint x="280" y="53" as="targetPoint" />
          </mxGeometry>
        </mxCell>
        <mxCell id="fvebulx2OxIcinfAuc56-9" style="edgeStyle=orthogonalEdgeStyle;rounded=0;orthogonalLoop=1;jettySize=auto;html=1;entryX=0.5;entryY=0;entryDx=0;entryDy=0;" edge="1" parent="1" source="fvebulx2OxIcinfAuc56-2" target="M7j4h07cG0Kve68zO_rH-5">
          <mxGeometry relative="1" as="geometry" />
        </mxCell>
        <mxCell id="fvebulx2OxIcinfAuc56-2" value="gate" style="verticalLabelPosition=bottom;verticalAlign=top;html=1;shape=offPageConnector;rounded=0;size=0.3333333333333333;direction=north;" vertex="1" parent="1">
          <mxGeometry x="270" y="30" width="60" height="30" as="geometry" />
        </mxCell>
        <mxCell id="fvebulx2OxIcinfAuc56-10" style="edgeStyle=orthogonalEdgeStyle;rounded=0;orthogonalLoop=1;jettySize=auto;html=1;exitX=0.5;exitY=1;exitDx=0;exitDy=0;entryX=0.5;entryY=0;entryDx=0;entryDy=0;" edge="1" parent="1" source="fvebulx2OxIcinfAuc56-4" target="M7j4h07cG0Kve68zO_rH-9">
          <mxGeometry relative="1" as="geometry" />
        </mxCell>
        <mxCell id="fvebulx2OxIcinfAuc56-4" value="gate" style="verticalLabelPosition=bottom;verticalAlign=top;html=1;shape=offPageConnector;rounded=0;size=0.3333333333333333;direction=north;" vertex="1" parent="1">
          <mxGeometry x="330" y="80" width="60" height="30" as="geometry" />
        </mxCell>
        <mxCell id="fvebulx2OxIcinfAuc56-6" style="edgeStyle=orthogonalEdgeStyle;rounded=0;orthogonalLoop=1;jettySize=auto;html=1;exitX=0;exitY=0.5;exitDx=0;exitDy=0;" edge="1" parent="1" source="M7j4h07cG0Kve68zO_rH-5" target="M7j4h07cG0Kve68zO_rH-5">
          <mxGeometry relative="1" as="geometry" />
        </mxCell>
        <mxCell id="fvebulx2OxIcinfAuc56-15" value="Phase" style="text;html=1;align=center;verticalAlign=middle;whiteSpace=wrap;rounded=0;" vertex="1" parent="1">
          <mxGeometry x="390" y="220" width="60" height="30" as="geometry" />
        </mxCell>
        <mxCell id="fvebulx2OxIcinfAuc56-16" style="edgeStyle=orthogonalEdgeStyle;rounded=0;orthogonalLoop=1;jettySize=auto;html=1;exitX=0;exitY=0.5;exitDx=0;exitDy=0;" edge="1" parent="1" source="M7j4h07cG0Kve68zO_rH-4">
          <mxGeometry relative="1" as="geometry">
            <mxPoint x="290" y="130" as="targetPoint" />
          </mxGeometry>
        </mxCell>
        <mxCell id="fvebulx2OxIcinfAuc56-18" value="" style="endArrow=classic;html=1;rounded=0;exitX=1;exitY=0.5;exitDx=0;exitDy=0;entryX=0;entryY=0.833;entryDx=0;entryDy=0;entryPerimeter=0;" edge="1" parent="1" source="M7j4h07cG0Kve68zO_rH-3" target="M7j4h07cG0Kve68zO_rH-4">
          <mxGeometry width="50" height="50" relative="1" as="geometry">
            <mxPoint x="380" y="260" as="sourcePoint" />
            <mxPoint x="430" y="210" as="targetPoint" />
          </mxGeometry>
        </mxCell>
        <mxCell id="fvebulx2OxIcinfAuc56-19" value="" style="endArrow=none;html=1;rounded=0;entryX=0;entryY=0.5;entryDx=0;entryDy=0;" edge="1" parent="1" target="fvebulx2OxIcinfAuc56-4">
          <mxGeometry width="50" height="50" relative="1" as="geometry">
            <mxPoint x="360" y="160" as="sourcePoint" />
            <mxPoint x="430" y="210" as="targetPoint" />
          </mxGeometry>
        </mxCell>
        <mxCell id="fvebulx2OxIcinfAuc56-20" value="" style="endArrow=none;html=1;rounded=0;" edge="1" parent="1">
          <mxGeometry width="50" height="50" relative="1" as="geometry">
            <mxPoint x="290" y="60" as="sourcePoint" />
            <mxPoint x="290" y="130" as="targetPoint" />
          </mxGeometry>
        </mxCell>
      </root>
    </mxGraphModel>
  </diagram>
</mxfile>
